<svg id="Calque_1" data-name="Calque 1" xmlns="http://www.w3.org/2000/svg" viewBox="0 0 400.37 155.47"><path d="M12.19,197.85a6.31,6.31,0,0,1-1.44-.31c-.68-.21-1-.52-1-.93,0-.13.14-.34.41-.61a13.14,13.14,0,0,0,1.34-.41c-.07,0-.1,0-.1.1s.48,0,1.44-.31a17.43,17.43,0,0,0,6.06-3.6,22.75,22.75,0,0,0,4.42-5.65q9.65-16,18.49-32.57t17.67-33q2.46-4.31,4.73-8.83t4.52-9q1-2.47,2.16-4.93a38.41,38.41,0,0,1,2.56-4.73,14.29,14.29,0,0,1,5.24-5,32.25,32.25,0,0,1,6.89-3.19H80.62q-4.12,0-11.2.51t-14.9,1.75a62.86,62.86,0,0,0-13.87,3.7q-6.06,2.46-8.32,6.58a14.76,14.76,0,0,0-2.06,7.19q0,4.11,1.85,5.55c1.24,1,1.85,1.57,1.85,1.84s-.2.55-.61.83a2.08,2.08,0,0,1-1,.41c-.82,0-1.85-.82-3.08-2.47a38.34,38.34,0,0,1-3.4-5.44c-1-2-1.67-3.32-2-4a17.14,17.14,0,0,1-.61-4.52q0-5.55,3.8-8.53A23,23,0,0,1,36.44,84a68.42,68.42,0,0,1,11.2-1.54q5.64-.31,9.35-.31,10.26,0,20.54-.51t20.35-.52a134.26,134.26,0,0,1,19,1.34,53.41,53.41,0,0,1,17,5.24A31.3,31.3,0,0,1,146.06,98.8q4.63,7.2,4.63,18.91a64.74,64.74,0,0,1-4,21.88,89.7,89.7,0,0,1-10,20q-25.07,37.6-70.27,37.6a73.59,73.59,0,0,1-14.28-1.44,51.33,51.33,0,0,1-13.67-4.72,16.2,16.2,0,0,0-3-1.34,10.08,10.08,0,0,0-3.18-.51,13.28,13.28,0,0,0-7,2.15q-3.49,2.16-6.78,4.32A11.61,11.61,0,0,1,12.19,197.85ZM64,194.35a69.72,69.72,0,0,0,28.77-6,71.69,71.69,0,0,0,23.42-16.74A81.46,81.46,0,0,0,132,146.89a98.85,98.85,0,0,0,4.42-13.77,60.11,60.11,0,0,0,1.74-14.18q0-16-9.76-24.76t-25.58-8.73a42.2,42.2,0,0,0-8.12.82,11.84,11.84,0,0,0-6.88,3.9,64.59,64.59,0,0,0-5,7.2q-2.35,3.9-4.62,7.6-4.73,8.22-8.94,17t-8.53,17.16Q53.9,152,47.33,165.17c-1,1.92-1.95,3.88-3,5.86s-2,3.94-3,5.86c-.28.68-.55,1.4-.82,2.16a7.32,7.32,0,0,0-.41,2.56,6.52,6.52,0,0,0,1.64,4.52,41.17,41.17,0,0,0,3.49,3.5,21.42,21.42,0,0,0,9,3.8A55.35,55.35,0,0,0,64,194.35Z" transform="translate(-9.72 -65.48)" style="fill:#1d1d1b"/><path d="M132,192.11a5.08,5.08,0,0,1-2.56-.6,2.36,2.36,0,0,1-1.05-2.25,13.86,13.86,0,0,1,1.12-5c.76-1.91,1.58-3.81,2.49-5.72s1.65-3.45,2.25-4.66c1.2-2.3,2.35-4.61,3.46-6.91s2-4.26,2.85-5.87a8.8,8.8,0,0,0,1.21-3c0-.8-.58-.8-1.73,0s-2.23,1.6-3.23,2.4a96.08,96.08,0,0,0-6.92,7.44q-3.6,4.29-5.56,6.85c-.3.4-.56.6-.75.6s-.3-.25-.3-.76a3.73,3.73,0,0,1,.75-2.25c1.4-2,3-4.21,5-6.61s3.86-4.71,5.86-6.92c1.9-2,3.86-4,5.86-5.86a10.67,10.67,0,0,1,7.67-2.86c2.11,0,3.16.8,3.16,2.41a9,9,0,0,1-1.8,4.81Q148.7,159,146.46,163c-1.51,2.61-3,5.44-4.59,8.49s-2.88,5.89-4,8.5a16.84,16.84,0,0,0-1.66,5.71,1.87,1.87,0,0,0,2.11,2.11A7.55,7.55,0,0,0,142.4,186a50.56,50.56,0,0,0,5-4.14,72.81,72.81,0,0,0,8.49-9.85,110,110,0,0,0,6.62-10.29q2.78-5,4.43-8.12c.2-.4.43-.88.68-1.43a1.63,1.63,0,0,1,1.28-1,30.77,30.77,0,0,1,3.91-.15,13,13,0,0,0,5.56-1.2h.3a.4.4,0,0,1,.45.45c0,.8-.65,1.41-2,1.8s-2.59,1.61-4.14,3.61a50.42,50.42,0,0,0-4.58,7.29,91,91,0,0,0-4.06,8.8,59.43,59.43,0,0,0-2.71,8.27,12.81,12.81,0,0,0-.45,5.56c.4,1.4,1.1,2.11,2.11,2.11,1.3,0,3.13-.81,5.48-2.41a67.19,67.19,0,0,0,7.29-5.79,63.74,63.74,0,0,0,6.17-6.24q1-1.2,1.95-2.4c.6-.8,1-1.3,1.2-1.51a1.84,1.84,0,0,1,.31.53,2.1,2.1,0,0,1,.15.68,5.45,5.45,0,0,1-.75,2,9.82,9.82,0,0,1-1.36,1.72,88.44,88.44,0,0,1-6.84,7.9,44.51,44.51,0,0,1-8.57,7,17.6,17.6,0,0,1-9.39,2.85,9.28,9.28,0,0,1-3.39-.75c-1.25-.5-1.88-1.6-1.88-3.3a18.93,18.93,0,0,1,1.06-5.34c.7-2.26,1.47-4.51,2.33-6.77a42.9,42.9,0,0,1,2.18-5q-2,2.85-4.74,6.39a58,58,0,0,1-5.64,6.24,41.69,41.69,0,0,1-8,6.08A17.29,17.29,0,0,1,132,192.11Z" transform="translate(-9.72 -65.48)" style="fill:#1d1d1b"/><path d="M189,192.87c-3.71,0-6.31-.71-7.82-2.11a7.08,7.08,0,0,1-2.25-5.41,20.84,20.84,0,0,1,2.86-9.7,83.67,83.67,0,0,1,5.41-8.94,49.94,49.94,0,0,1,5.78-6.54,39.42,39.42,0,0,1,7-5.34,46.59,46.59,0,0,1,6.53-3.23,18.92,18.92,0,0,1,7-1.73c2.3,0,3.91.53,4.81,1.58a5.69,5.69,0,0,1,1.35,3.83,12,12,0,0,1-.6,3.68,31.82,31.82,0,0,1-1.35,3.54,2.58,2.58,0,0,1-1.36,1.28c-.6.25-.9.17-.9-.23a5.58,5.58,0,0,1,.15-1.35,5.6,5.6,0,0,0,.15-1.36,13.23,13.23,0,0,0-1.28-5.63q-1.28-2.79-3.83-2.79a11.62,11.62,0,0,0-5.86,1.88,19.16,19.16,0,0,0-4.36,3.24,57.84,57.84,0,0,0-7.59,10.07A50,50,0,0,0,187.5,179a17.56,17.56,0,0,0-1.05,5.41,4.32,4.32,0,0,0,1.35,3.61,5.22,5.22,0,0,0,3.31,1.05,12.91,12.91,0,0,0,3.23-.45c1.15-.3,2.38-.65,3.68-1.06a35,35,0,0,0,9.1-4.73,67.35,67.35,0,0,0,8.34-6.92,50.89,50.89,0,0,0,5.71-6.39,1.27,1.27,0,0,1,.31.91,3.42,3.42,0,0,1-.61,1.72c-.4.66-.7,1.18-.9,1.58a56.55,56.55,0,0,1-8.27,8.65,53.81,53.81,0,0,1-11,7.44A25.73,25.73,0,0,1,189,192.87Z" transform="translate(-9.72 -65.48)" style="fill:#1d1d1b"/><path d="M244.29,147.18a17.18,17.18,0,0,0-6-.42,12.25,12.25,0,0,0-5.05,1.66,13.46,13.46,0,0,0-7.14,6,9.81,9.81,0,0,0-1.21,5.82,9.46,9.46,0,0,0,1.68,4.46,11.61,11.61,0,0,0,2.29,3.93,41.28,41.28,0,0,0,3.64,3.71,23.7,23.7,0,0,1,4.41,5.2,11.8,11.8,0,0,1,1.73,4.83,8.65,8.65,0,0,1-1.47,5.77,4.87,4.87,0,0,1-1.21,1.28,8.24,8.24,0,0,1-1.68.85,18.4,18.4,0,0,1-4.73,1.09,21.68,21.68,0,0,1-3.12.07,7.46,7.46,0,0,1-2.71-.6,23.47,23.47,0,0,1-2.73-1.6,13.87,13.87,0,0,1-2.47-2.1,10,10,0,0,1-2.4-7,6.75,6.75,0,0,1,.32-1.51c.16-.49.28-.89.35-1.21s.14-.43-.13-.61a.89.89,0,0,0-1,.1l0,.05a1,1,0,0,0-.29.15,7.64,7.64,0,0,0-2.19,4,13.45,13.45,0,0,0-.54,4.9,4.51,4.51,0,0,0,.29,1.38,8.34,8.34,0,0,0,3.65,4.56,15.35,15.35,0,0,0,5.74,2,24.21,24.21,0,0,0,6,.2,18.15,18.15,0,0,0,8.39-2.93c.06,0,.1-.08.16-.11l.16-.1a17.67,17.67,0,0,0,5.8-6.19,13.28,13.28,0,0,0,1.64-7.89,13.89,13.89,0,0,0-3.73-7.91,23.88,23.88,0,0,0-3.11-2.57c-.77-.69-1.6-1.42-2.54-2.19a13.18,13.18,0,0,1-4.26-5.21,1.75,1.75,0,0,1-.23-.76c0-.31,0-.56-.07-.77a6.28,6.28,0,0,1,1.83-5.26,7.46,7.46,0,0,1,4.61-2.4,5.91,5.91,0,0,1,3.35.69,6.07,6.07,0,0,1,2.63,2.94,11.05,11.05,0,0,1,1.38,4.56,7.42,7.42,0,0,1,0,1.41,6.63,6.63,0,0,0,0,1.4q.06.63.87.15a2.72,2.72,0,0,0,1.19-1.44c.4-1.19.77-2.45,1.12-3.78a11.45,11.45,0,0,0,.32-3.86C247.28,149.26,246.17,147.68,244.29,147.18Z" transform="translate(-9.72 -65.48)" style="fill:#1d1d1b"/><path d="M243.53,193.92q-.6,0,0-1.35a31.44,31.44,0,0,0,1.43-3c.45-1.1.92-2.31,1.42-3.61,1-2.4,2.11-5.11,3.31-8.12s2.35-5.94,3.46-8.79,2.08-5.31,2.93-7.37,1.43-3.38,1.73-4q-2.1,2.25-5,5.63t-5.49,6.54c-1.7,2.11-3,3.76-3.9,5-.3.4-.56.6-.76.6s-.3-.25-.3-.76a3.74,3.74,0,0,1,.76-2.25q2.85-3.61,6.38-8.12c2.36-3,4.49-5.79,6.39-8.34s3.11-4.23,3.61-5l4.89-.9a9.82,9.82,0,0,0,4.44-1.65,1.28,1.28,0,0,1,.9-.45c.2,0,.32.17.37.52a1.53,1.53,0,0,1-.37,1.13,39.41,39.41,0,0,0-3.09,4.88q-2.18,3.84-4.66,8.5t-4.58,8.42c1.6-1.9,3.18-3.71,4.73-5.41s2.63-2.91,3.24-3.61q1.8-1.82,5-4.51a61.93,61.93,0,0,1,6.61-5,14.66,14.66,0,0,1,6-2.56,4.41,4.41,0,0,1,1.05-.15h.9c1.9,0,2.86.7,2.86,2.1a6.12,6.12,0,0,1-.45,2.11,13.51,13.51,0,0,1-1.21,2.4q-.9,1.82-3,5.64t-3.76,7l7.06-7.06c1.21-1.21,2.86-2.71,5-4.51a60.94,60.94,0,0,1,6.61-5,14.69,14.69,0,0,1,6-2.56,4.69,4.69,0,0,1,1.13-.15h.83c2.2,0,3.3.8,3.3,2.41q0,1.8-2,4.81-1,1.65-3.31,5.56t-4.58,8.49q-2.34,4.59-4,8.5a16.84,16.84,0,0,0-1.66,5.71,1.87,1.87,0,0,0,2.11,2.11q1.95,0,5-2.34a56.93,56.93,0,0,0,6.31-5.63,83.9,83.9,0,0,0,5.64-6.32c.7-.8,1.38-1.63,2-2.48s1-1.33,1.13-1.43a1.51,1.51,0,0,1,.3,1.06,3.52,3.52,0,0,1-.67,2c-.45.65-.88,1.22-1.28,1.72q-2.86,3.76-6.54,7.82a39.46,39.46,0,0,1-8.05,6.84,20.51,20.51,0,0,1-9.32,3.23,5.41,5.41,0,0,1-3-.6,2.5,2.5,0,0,1-1.51-2.4,13.9,13.9,0,0,1,1.13-5c.75-1.91,1.6-3.81,2.56-5.72s1.67-3.45,2.18-4.66q2.7-5.25,5-9.92t3.16-6.61a3.73,3.73,0,0,0,.44-1.51q0-1-1.65-.15a31.5,31.5,0,0,0-4,2.71q-2.34,1.8-4.29,3.53c-1.3,1.15-2.15,1.93-2.55,2.33a89.69,89.69,0,0,0-6.09,6.92,96.75,96.75,0,0,0-6.54,9.09,35.34,35.34,0,0,0-4.21,8.8,4.4,4.4,0,0,1-2.86,1.35,2.23,2.23,0,0,1-1.73-.75,2.59,2.59,0,0,1-.67-1.8,17.72,17.72,0,0,1,1.88-7.15q1.88-4.12,3.08-6.84,2.7-5.25,5-9.92c1.5-3.11,2.56-5.31,3.16-6.61a3.61,3.61,0,0,0,.45-1.51c0-.7-.55-.75-1.66-.15a31.5,31.5,0,0,0-4,2.71q-2.32,1.8-4.29,3.53c-1.3,1.15-2.15,1.93-2.55,2.33q-3.61,3.76-6.69,7.67a42.4,42.4,0,0,0-5.19,8.42c-.8,1.8-1.65,3.81-2.55,6s-1.66,4.06-2.26,5.56a11.48,11.48,0,0,0-3.91,1.06A8.07,8.07,0,0,1,243.53,193.92Z" transform="translate(-9.72 -65.48)" style="fill:#1d1d1b"/><path d="M333.73,192.11a5.1,5.1,0,0,1-2.56-.6,2.36,2.36,0,0,1-1.05-2.25,13.52,13.52,0,0,1,1.05-4.81,56.44,56.44,0,0,1,2.41-5.34q1.35-2.62,2.4-4.28-5.26,5.55-11,10.52a50.91,50.91,0,0,1-6.32,4.51,13.94,13.94,0,0,1-7.36,2.1,2.27,2.27,0,0,1-2.11-1,4.37,4.37,0,0,1-.6-2.33,2.66,2.66,0,0,1,.15-1.06,40.2,40.2,0,0,1,3.76-12.17,63,63,0,0,1,7.37-11.88,50.37,50.37,0,0,1,8.87-9A18.08,18.08,0,0,1,340,150.62h17.29q.75,0,.75.6c0,.81-.45,1.2-1.35,1.2a4.09,4.09,0,0,0-3,1.88,34.4,34.4,0,0,0-2.25,3.09c-.7,1.1-1.81,3-3.31,5.56s-3,5.44-4.59,8.49-2.88,5.89-4,8.5a17,17,0,0,0-1.65,5.71,1.86,1.86,0,0,0,2.1,2.11,9,9,0,0,0,5.11-2.11,43.36,43.36,0,0,0,5.79-5.19c2-2.05,3.76-4.11,5.42-6.16s3-3.68,4-4.89c.6.6.57,1.43-.08,2.48a21.49,21.49,0,0,1-1.73,2.48,104.85,104.85,0,0,1-6.91,8,40.79,40.79,0,0,1-8.49,6.91A17.89,17.89,0,0,1,333.73,192.11Zm-16.24-5.26c1.2,0,2.88-.87,5-2.63a75.6,75.6,0,0,0,7-6.61,95.31,95.31,0,0,0,7.06-8.42,91.31,91.31,0,0,0,5.49-8.12q2.18-3.67,2.18-5.64a2.41,2.41,0,0,0-1-2.25,4.65,4.65,0,0,0-2.48-.6,9.93,9.93,0,0,0-5.18,1.72,24.58,24.58,0,0,0-4.44,3.39,32.93,32.93,0,0,0-4.28,5.18q-2.49,3.54-4.89,7.75a76.66,76.66,0,0,0-4.06,8.11,17.37,17.37,0,0,0-1.65,6.32Q316.29,186.85,317.49,186.85Z" transform="translate(-9.72 -65.48)" style="fill:#1d1d1b"/><path d="M358.38,193.92q-.6,0,0-1.35a29.21,29.21,0,0,0,1.43-3c.45-1.1.93-2.31,1.43-3.61q1.5-3.6,3.31-8.12c1.2-3,2.35-5.94,3.45-8.79s2.08-5.31,2.94-7.37,1.42-3.38,1.72-4q-2.1,2.25-5,5.63t-5.49,6.54c-1.71,2.11-3,3.76-3.91,5q-.45.6-.75.6c-.2,0-.3-.25-.3-.76a3.8,3.8,0,0,1,.75-2.25c1.9-2.41,4-5.11,6.39-8.12s4.48-5.79,6.39-8.34,3.11-4.23,3.61-5l4.88-.9a9.72,9.72,0,0,0,4.44-1.65,1.3,1.3,0,0,1,.9-.45c.2,0,.32.17.38.52a1.55,1.55,0,0,1-.38,1.13,38.54,38.54,0,0,0-3.08,4.88q-2.19,3.84-4.66,8.5c-1.66,3.11-3.18,5.91-4.59,8.42a58.82,58.82,0,0,1,3.91-4.66l4.06-4.36c1.2-1.21,2.86-2.71,5-4.51a62,62,0,0,1,6.62-5,14.63,14.63,0,0,1,6-2.56,4.69,4.69,0,0,1,1.13-.15h.83c2.2,0,3.3.8,3.3,2.41q0,1.8-1.95,4.81-1.05,1.65-3.23,5.48t-4.36,8.27q-2.19,4.44-3.76,8.27a16.89,16.89,0,0,0-1.58,5.64,1.86,1.86,0,0,0,2.11,2.1q2.55,0,5.63-2.55a68,68,0,0,0,6.69-6.54q3.62-4,7.22-8.5a1.51,1.51,0,0,1,.3,1.06,3.53,3.53,0,0,1-.68,2c-.45.65-.88,1.22-1.28,1.72q-1.5,2-4,4.89c-1.65,2-3.33,3.86-5,5.71a40,40,0,0,1-4.67,4.44,31.45,31.45,0,0,1-3.9,2.25,10.75,10.75,0,0,1-4.82,1.21c-1.8,0-3.05-.48-3.76-1.43a5.79,5.79,0,0,1-1.05-3.53,16.27,16.27,0,0,1,.9-5.12,53.14,53.14,0,0,1,2-5.18c.75-1.66,1.32-2.88,1.72-3.69q2.71-5.25,5-9.92t3.15-6.61a3.61,3.61,0,0,0,.45-1.51q0-1-1.65-.15a31.5,31.5,0,0,0-4,2.71q-2.34,1.8-4.29,3.53c-1.3,1.15-2.16,1.93-2.55,2.33a68.94,68.94,0,0,0-9.7,13A99.53,99.53,0,0,0,365,192a11.36,11.36,0,0,0-3.91,1.06A8.1,8.1,0,0,1,358.38,193.92Z" transform="translate(-9.72 -65.48)" style="fill:#1d1d1b"/><path d="M233,199.58a7.28,7.28,0,0,1,1.71.17l1.54.39a9.87,9.87,0,0,1-.12,1.07c-.06.46-.13.9-.19,1.34s-.12.78-.17,1c0,.08-.05.13-.11.15l-.13,0a.84.84,0,0,1-.23,0,.76.76,0,0,1-.29-.13,4.15,4.15,0,0,0-.4-2.35,1.86,1.86,0,0,0-1.78-.91,2.89,2.89,0,0,0-1.63.43,2.76,2.76,0,0,0-1,1,2.82,2.82,0,0,0-.32,1.24,2.91,2.91,0,0,0,.41,1.62,4.29,4.29,0,0,0,1,1.12c.42.32.84.64,1.26,1l1.32,1a5.1,5.1,0,0,1,1.18,1.23,3.1,3.1,0,0,1,.49,1.82,4.19,4.19,0,0,1-.47,2,4.74,4.74,0,0,1-1.27,1.51,6.06,6.06,0,0,1-1.75.95,5.89,5.89,0,0,1-1.93.33,6,6,0,0,1-1.9-.31,8.93,8.93,0,0,1-1.58-.69,13.9,13.9,0,0,1-.22-1.43c0-.52-.07-1-.08-1.39a5,5,0,0,1,0-.75.37.37,0,0,1,.26-.11,1.45,1.45,0,0,1,.32,0,.26.26,0,0,1,.25.15,4.43,4.43,0,0,0,.18,1.14,5.14,5.14,0,0,0,.56,1.28,3.35,3.35,0,0,0,1,1,2.72,2.72,0,0,0,1.5.41,3.23,3.23,0,0,0,1.48-.35,2.94,2.94,0,0,0,1.11-1,3.41,3.41,0,0,0,.11-3.06,4.32,4.32,0,0,0-.83-1.09,11.82,11.82,0,0,0-1.12-.94c-.47-.39-.95-.76-1.45-1.11a4.87,4.87,0,0,1-1.26-1.26,3.49,3.49,0,0,1-.49-2,3.71,3.71,0,0,1,.46-1.85,5,5,0,0,1,1.2-1.42,5.4,5.4,0,0,1,1.62-.91A5,5,0,0,1,233,199.58Z" transform="translate(-9.72 -65.48)" style="fill:#1d1d1b"/><path d="M244.07,205.05a5.33,5.33,0,0,1,1.07.1,6.15,6.15,0,0,1,.78.22l-1.46,7.48c0,.09,0,.24-.07.47a2.16,2.16,0,0,0,0,.62c0,.18.1.28.23.28a1.06,1.06,0,0,0,.64-.33,8.8,8.8,0,0,0,.69-.67l.34-.37s.08.06.14.16a.71.71,0,0,1,.08.28,3.2,3.2,0,0,1-.42.54,9.73,9.73,0,0,1-.79.75,6.65,6.65,0,0,1-1,.67,2,2,0,0,1-.91.28.68.68,0,0,1-.61-.35,1.66,1.66,0,0,1-.22-.89c0-.1,0-.27,0-.51s.07-.5.12-.76.06-.38.07-.47,0-.17,0-.25a7.51,7.51,0,0,1-.55.85,11.2,11.2,0,0,1-.86,1.07,6.22,6.22,0,0,1-1,.91,1.89,1.89,0,0,1-1.06.37,1.79,1.79,0,0,1-1.53-.77,3.42,3.42,0,0,1-.56-2,7,7,0,0,1,.64-2.94,8.93,8.93,0,0,1,1.67-2.45,8.33,8.33,0,0,1,2.2-1.66A5,5,0,0,1,244.07,205.05ZM243,206a2.29,2.29,0,0,0-1.37.51,5.47,5.47,0,0,0-1.28,1.37,8.34,8.34,0,0,0-.94,1.89,6.34,6.34,0,0,0-.35,2,3.88,3.88,0,0,0,.3,1.71,1,1,0,0,0,.92.6,1.42,1.42,0,0,0,.94-.49,6.23,6.23,0,0,0,1-1.27,13.09,13.09,0,0,0,.84-1.72,10.08,10.08,0,0,0,.53-1.77l.51-2.51a1,1,0,0,0-.51-.27A2.35,2.35,0,0,0,243,206Z" transform="translate(-9.72 -65.48)" style="fill:#1d1d1b"/><path d="M255.08,205.05a1.69,1.69,0,0,1,1.61.82,4.17,4.17,0,0,1,.46,2,7.59,7.59,0,0,1-.52,2.72,9.7,9.7,0,0,1-1.39,2.45,7.55,7.55,0,0,1-1.92,1.76,4.08,4.08,0,0,1-2.15.65,2.79,2.79,0,0,1-.64-.07.74.74,0,0,1-.45-.24l-.81,3.64c0,.12,0,.22,0,.32s0,.21,0,.34a.89.89,0,0,0,.07.29.36.36,0,0,0,.24.24,2.25,2.25,0,0,0,.61.08h.51c.05,0,.06.12.05.33s-.06.32-.12.35h-.44l-.39,0c-.6,0-1.16,0-1.69,0s-1.14.08-1.83.16q-.11,0-.09-.33c0-.2,0-.32.11-.35a1.15,1.15,0,0,0,1-.37,1.36,1.36,0,0,0,.2-.4l.17-.62,1.87-9.43-1.14,1.14a.44.44,0,0,1-.1-.24,1.29,1.29,0,0,1,0-.24.23.23,0,0,1,.08-.17l1.38-1.49.63-3.35a2.66,2.66,0,0,1,.45-.07l.45,0a1.73,1.73,0,0,1,.76.17c0,.15-.08.37-.14.67s-.11.58-.15.84-.09.42-.1.49c.21-.2.52-.46.92-.81a9.77,9.77,0,0,1,1.3-.91A2.7,2.7,0,0,1,255.08,205.05Zm-1,1.31a2,2,0,0,0-.93.3,6,6,0,0,0-1.06.71,4.48,4.48,0,0,0-.82.89l-.78,4a2.5,2.5,0,0,0,.19,1.73,1.11,1.11,0,0,0,.93.68,2.12,2.12,0,0,0,1.42-.61,6.05,6.05,0,0,0,1.19-1.58,9.05,9.05,0,0,0,.81-2.11,8.69,8.69,0,0,0,.29-2.19,2.21,2.21,0,0,0-.34-1.41A1.08,1.08,0,0,0,254.13,206.36Z" transform="translate(-9.72 -65.48)" style="fill:#1d1d1b"/><path d="M264.61,205.05a1.38,1.38,0,0,1,1.24.48,1.78,1.78,0,0,1,.32,1,2.35,2.35,0,0,1-.43,1.31,5.37,5.37,0,0,1-1.12,1.18,9.06,9.06,0,0,1-1.46.94,8.15,8.15,0,0,1-1.47.62,3.92,3.92,0,0,1-1.14.22,1.13,1.13,0,0,0,0,.36c0,.2,0,.33,0,.4a4,4,0,0,0,.37,1.82,1.3,1.3,0,0,0,1.26.73,1.74,1.74,0,0,0,.83-.23,5.81,5.81,0,0,0,.78-.55,6.6,6.6,0,0,0,.59-.57l.26-.28s.08.06.15.17a.5.5,0,0,1,.11.29,5.83,5.83,0,0,1-.48.61,12.15,12.15,0,0,1-.88.87,5.44,5.44,0,0,1-1.09.78,2.41,2.41,0,0,1-1.14.32,2.3,2.3,0,0,1-1.95-.9,4.18,4.18,0,0,1-.68-2.55,6.33,6.33,0,0,1,.55-2.58,8.47,8.47,0,0,1,1.42-2.26,7.37,7.37,0,0,1,1.93-1.59A4.22,4.22,0,0,1,264.61,205.05Zm-4,5.15a2.8,2.8,0,0,0,1-.25,6.94,6.94,0,0,0,1.29-.71,4.57,4.57,0,0,0,1.11-1,2,2,0,0,0,.45-1.24.8.8,0,0,0-.33-.71,1.12,1.12,0,0,0-.67-.24,1.57,1.57,0,0,0-1.11.48,4.33,4.33,0,0,0-.86,1.16,8.56,8.56,0,0,0-.58,1.39A5.73,5.73,0,0,0,260.6,210.2Zm2.84-6.75s-.07,0-.12-.09a.21.21,0,0,1-.07-.13,1.51,1.51,0,0,1,.3-.45c.21-.25.44-.54.72-.86s.53-.62.77-.88a2.93,2.93,0,0,1,.47-.46,1.47,1.47,0,0,1,.87-.22,1.5,1.5,0,0,1,.59.15.55.55,0,0,1,.34.56c0,.09-.12.24-.35.42a9.22,9.22,0,0,1-.9.61l-1.11.64c-.37.21-.7.38-1,.51A1.93,1.93,0,0,1,263.44,203.45Z" transform="translate(-9.72 -65.48)" style="fill:#1d1d1b"/><path d="M271.42,205a3.55,3.55,0,0,1,1.17.16,2.38,2.38,0,0,1,.87.5,1.17,1.17,0,0,1,.17.37,1.47,1.47,0,0,1,.07.38,1.07,1.07,0,0,1-.22.68.71.71,0,0,1-.58.29.88.88,0,0,1-.6-.25,4.76,4.76,0,0,1-.52-.57,4.58,4.58,0,0,0-.4-.53,1,1,0,0,0-.72-.23,1,1,0,0,0-.89.48,1.75,1.75,0,0,0-.27.86,1.93,1.93,0,0,0,.52,1.3c.35.4.7.8,1.06,1.23a9.85,9.85,0,0,1,1,1.34,3.07,3.07,0,0,1,.44,1.62,2.63,2.63,0,0,1-1,2.12,3.74,3.74,0,0,1-2.47.8,4.09,4.09,0,0,1-1.08-.16,2.86,2.86,0,0,1-1-.55,3.57,3.57,0,0,1-.14-.33.94.94,0,0,1-.1-.4,1.18,1.18,0,0,1,.25-.8.81.81,0,0,1,.62-.29.6.6,0,0,1,.56.34c.13.23.29.47.46.73a2.33,2.33,0,0,0,.5.49,1.34,1.34,0,0,0,.77.21,1,1,0,0,0,.73-.24A1.38,1.38,0,0,0,271,214a2.28,2.28,0,0,0,.1-.57,1.83,1.83,0,0,0-.39-1.14c-.26-.34-.55-.69-.85-1.05s-.79-.95-1.16-1.46a3,3,0,0,1-.55-1.77,2.7,2.7,0,0,1,.4-1.36,3.44,3.44,0,0,1,1.15-1.16A3.19,3.19,0,0,1,271.42,205Z" transform="translate(-9.72 -65.48)" style="fill:#1d1d1b"/><path d="M288,205.05a1.59,1.59,0,0,1,.88.21c.22.14.41.27.58.4l.13.26a.8.8,0,0,1,.08.37,1.45,1.45,0,0,1-.19.73.64.64,0,0,1-.61.34.94.94,0,0,1-.85-.48,2.6,2.6,0,0,0-.45-.58,1.1,1.1,0,0,0-.79-.28,1.85,1.85,0,0,0-1.32.72,5.61,5.61,0,0,0-1.12,2,8.26,8.26,0,0,0-.45,2.84,6,6,0,0,0,.1,1,2.46,2.46,0,0,0,.43,1.08,1.27,1.27,0,0,0,1.1.48,1.7,1.7,0,0,0,.82-.23,4.76,4.76,0,0,0,.78-.55,6.88,6.88,0,0,0,.6-.57l.25-.28s.09.06.16.17a.59.59,0,0,1,.11.29,3.84,3.84,0,0,1-.45.58,8.73,8.73,0,0,1-.86.88,5.74,5.74,0,0,1-1.11.79,2.38,2.38,0,0,1-1.15.33,2.33,2.33,0,0,1-2-.91,4.2,4.2,0,0,1-.69-2.57,6.54,6.54,0,0,1,.57-2.7,7.93,7.93,0,0,1,1.49-2.22,8,8,0,0,1,2-1.52A4.16,4.16,0,0,1,288,205.05Z" transform="translate(-9.72 -65.48)" style="fill:#1d1d1b"/><path d="M295.89,205.05a2.34,2.34,0,0,1,2.1,1,4.32,4.32,0,0,1,.67,2.51,7.23,7.23,0,0,1-.45,2.48,8.17,8.17,0,0,1-1.23,2.25,6.77,6.77,0,0,1-1.73,1.62,3.7,3.7,0,0,1-2,.6,2.41,2.41,0,0,1-2.08-.93,4.08,4.08,0,0,1-.69-2.47,7.28,7.28,0,0,1,.45-2.49,8.56,8.56,0,0,1,1.23-2.29,7.11,7.11,0,0,1,1.74-1.65A3.63,3.63,0,0,1,295.89,205.05Zm-.34.76a1.89,1.89,0,0,0-1.34.55,4.86,4.86,0,0,0-1,1.46,9.22,9.22,0,0,0-.85,3.82,5.92,5.92,0,0,0,.35,2.26c.23.57.56.85,1,.85a1.85,1.85,0,0,0,1.32-.57,4.9,4.9,0,0,0,1-1.47,9.6,9.6,0,0,0,.81-3.82,6.56,6.56,0,0,0-.31-2.26C296.29,206.08,296,205.81,295.55,205.81Z" transform="translate(-9.72 -65.48)" style="fill:#1d1d1b"/><path d="M312,213l.83-3.91a6,6,0,0,0,.1-.63c0-.31.07-.53.07-.66a3.56,3.56,0,0,0-.07-.74.36.36,0,0,0-.4-.28,1.81,1.81,0,0,0-1,.5,9.42,9.42,0,0,0-1.27,1.31,11.55,11.55,0,0,0-1.2,1.78,6.53,6.53,0,0,0-.69,1.86l-.58,3.13-.43.05a3,3,0,0,1-.45,0,2.49,2.49,0,0,1-.41,0l-.41-.05,1.31-6.73c0-.2.06-.37.07-.51a3,3,0,0,0,0-.39c0-.63-.16-.95-.47-.95a1.71,1.71,0,0,0-1,.56,9.37,9.37,0,0,0-1.25,1.44,12,12,0,0,0-1.13,1.85,8.2,8.2,0,0,0-.68,1.84l-.61,2.89a3.1,3.1,0,0,1-.85.1,1.85,1.85,0,0,1-.43,0l-.4-.06,1.56-7.65c0-.09,0-.22.06-.41s0-.31,0-.37v0a2.11,2.11,0,0,0,0-.35c0-.12-.08-.19-.19-.19a1.11,1.11,0,0,0-.64.33,7.34,7.34,0,0,0-.69.67l-.35.39s-.08-.06-.15-.18a.72.72,0,0,1-.09-.28,3.67,3.67,0,0,1,.42-.54,9.27,9.27,0,0,1,.77-.75,5.83,5.83,0,0,1,.92-.67,1.87,1.87,0,0,1,.9-.28.82.82,0,0,1,.66.35,1.51,1.51,0,0,1,.26.89,3.6,3.6,0,0,1-.06.51c0,.25-.08.5-.13.76-.08.42-.16.79-.23,1.1s-.16.69-.26,1.11c.21-.38.49-.83.84-1.36s.73-1.06,1.13-1.57a10.08,10.08,0,0,1,1.2-1.28,1.74,1.74,0,0,1,1.06-.51,1.43,1.43,0,0,1,1.05.35,1.91,1.91,0,0,1,.45.87,5.17,5.17,0,0,1,.11,1c0,.18,0,.41-.05.7s-.08.55-.14.81-.11.46-.15.61a11.06,11.06,0,0,1,.86-1.3,17.8,17.8,0,0,1,1.18-1.45,8.37,8.37,0,0,1,1.25-1.17,2,2,0,0,1,1.08-.46,1.32,1.32,0,0,1,1.14.43,1.89,1.89,0,0,1,.32,1.15,8.9,8.9,0,0,1-.11,1.31c-.07.47-.15.9-.23,1.27l-.78,3.64c0,.12,0,.26-.06.43a2.26,2.26,0,0,0,0,.35,1.76,1.76,0,0,0,0,.38q0,.21.21.21a1.08,1.08,0,0,0,.64-.33,7.2,7.2,0,0,0,.68-.67l.33-.37s.08.06.15.16a.6.6,0,0,1,.09.28,3.1,3.1,0,0,1-.44.54,8.52,8.52,0,0,1-.8.75,6.14,6.14,0,0,1-1,.67,1.94,1.94,0,0,1-.91.28.64.64,0,0,1-.59-.35,1.75,1.75,0,0,1-.21-.89,3.21,3.21,0,0,1,.05-.51C311.94,213.53,312,213.28,312,213Z" transform="translate(-9.72 -65.48)" style="fill:#1d1d1b"/><path d="M329,213l.83-3.91a5.26,5.26,0,0,0,.11-.63,6,6,0,0,0,.06-.66,3.67,3.67,0,0,0-.06-.74.37.37,0,0,0-.41-.28,1.81,1.81,0,0,0-1,.5,9.42,9.42,0,0,0-1.27,1.31,10.83,10.83,0,0,0-1.19,1.78,6.57,6.57,0,0,0-.7,1.86l-.58,3.13-.43.05a3,3,0,0,1-.45,0,2.49,2.49,0,0,1-.41,0l-.41-.05,1.31-6.73c0-.2.06-.37.07-.51a3,3,0,0,0,0-.39c0-.63-.16-.95-.46-.95a1.7,1.7,0,0,0-1,.56,9.37,9.37,0,0,0-1.25,1.44,12,12,0,0,0-1.13,1.85,8.2,8.2,0,0,0-.68,1.84l-.61,2.89a3.1,3.1,0,0,1-.85.1,1.85,1.85,0,0,1-.43,0l-.4-.06,1.56-7.65c0-.09,0-.22.06-.41s0-.31,0-.37v0a2.11,2.11,0,0,0,0-.35c0-.12-.08-.19-.19-.19a1.11,1.11,0,0,0-.64.33,6.3,6.3,0,0,0-.69.67l-.35.39s-.08-.06-.15-.18a.72.72,0,0,1-.09-.28,3.67,3.67,0,0,1,.42-.54c.22-.24.48-.49.77-.75a5.83,5.83,0,0,1,.92-.67,1.87,1.87,0,0,1,.9-.28.82.82,0,0,1,.66.35,1.51,1.51,0,0,1,.26.89,3.6,3.6,0,0,1-.06.51c0,.25-.08.5-.13.76-.08.42-.16.79-.23,1.1s-.16.69-.26,1.11c.21-.38.49-.83.84-1.36s.73-1.06,1.13-1.57a10.08,10.08,0,0,1,1.2-1.28,1.74,1.74,0,0,1,1.06-.51,1.43,1.43,0,0,1,1.05.35,1.91,1.91,0,0,1,.45.87,5.17,5.17,0,0,1,.11,1c0,.18,0,.41-.05.7a6.84,6.84,0,0,1-.14.81c-.05.26-.11.46-.15.61a11.06,11.06,0,0,1,.86-1.3,17.8,17.8,0,0,1,1.18-1.45,8.88,8.88,0,0,1,1.25-1.17,2,2,0,0,1,1.08-.46,1.32,1.32,0,0,1,1.14.43,1.89,1.89,0,0,1,.32,1.15,8.9,8.9,0,0,1-.11,1.31c-.07.47-.15.9-.23,1.27l-.78,3.64c0,.12,0,.26-.06.43s0,.29,0,.35a2.73,2.73,0,0,0,0,.38q0,.21.21.21a1.06,1.06,0,0,0,.64-.33,7.2,7.2,0,0,0,.68-.67l.33-.37s.08.06.15.16a.6.6,0,0,1,.09.28,3.43,3.43,0,0,1-.43.54,10.22,10.22,0,0,1-.81.75,5.7,5.7,0,0,1-1,.67,1.94,1.94,0,0,1-.91.28.64.64,0,0,1-.59-.35,1.75,1.75,0,0,1-.21-.89c0-.1,0-.27.05-.51S328.92,213.28,329,213Z" transform="translate(-9.72 -65.48)" style="fill:#1d1d1b"/><path d="M340.15,205.05a1.38,1.38,0,0,1,1.24.48,1.78,1.78,0,0,1,.32,1,2.35,2.35,0,0,1-.43,1.31,5.37,5.37,0,0,1-1.12,1.18,9.06,9.06,0,0,1-1.46.94,8.15,8.15,0,0,1-1.47.62,3.92,3.92,0,0,1-1.14.22,1.35,1.35,0,0,0,0,.36c0,.2,0,.33,0,.4a4,4,0,0,0,.37,1.82,1.3,1.3,0,0,0,1.26.73,1.74,1.74,0,0,0,.83-.23,5.81,5.81,0,0,0,.78-.55,6.6,6.6,0,0,0,.59-.57l.26-.28s.08.06.15.17a.5.5,0,0,1,.11.29,5.83,5.83,0,0,1-.48.61,12.15,12.15,0,0,1-.88.87,5.44,5.44,0,0,1-1.09.78,2.41,2.41,0,0,1-1.14.32,2.29,2.29,0,0,1-1.95-.9,4.18,4.18,0,0,1-.68-2.55,6.33,6.33,0,0,1,.55-2.58,8.47,8.47,0,0,1,1.42-2.26,7.37,7.37,0,0,1,1.93-1.59A4.22,4.22,0,0,1,340.15,205.05Zm-4,5.15a2.8,2.8,0,0,0,1-.25,6.94,6.94,0,0,0,1.29-.71,4.57,4.57,0,0,0,1.11-1A2,2,0,0,0,340,207a.8.8,0,0,0-.33-.71A1.12,1.12,0,0,0,339,206a1.56,1.56,0,0,0-1.11.48,4.33,4.33,0,0,0-.86,1.16,8.56,8.56,0,0,0-.58,1.39A5.73,5.73,0,0,0,336.14,210.2Z" transform="translate(-9.72 -65.48)" style="fill:#1d1d1b"/><path d="M352.11,207.73c0-.09,0-.22.06-.41s0-.31,0-.37a2.64,2.64,0,0,0,0-.38.2.2,0,0,0-.22-.21,1.07,1.07,0,0,0-.62.33,7.2,7.2,0,0,0-.68.67l-.35.39s-.08-.06-.15-.18a.72.72,0,0,1-.09-.28,4.19,4.19,0,0,1,.41-.54,8.82,8.82,0,0,1,.75-.75,5.48,5.48,0,0,1,.93-.67,1.87,1.87,0,0,1,.9-.28.81.81,0,0,1,.65.35,1.45,1.45,0,0,1,.27.89,4.41,4.41,0,0,1,0,.51,7,7,0,0,1-.11.76l-1.31,6.75c-.06.28-.16.65-.29,1.11a10.56,10.56,0,0,1-.54,1.46,7,7,0,0,1-.85,1.44,8.19,8.19,0,0,1-1.71,1.67,9,9,0,0,1-1.59,1,.55.55,0,0,1-.22-.46,6.07,6.07,0,0,0,2.09-2.17,10.57,10.57,0,0,0,1.29-3.45Zm1.63-7.68a.78.78,0,0,1,.62.27,1,1,0,0,1,.23.67,1.51,1.51,0,0,1-.37,1,1.13,1.13,0,0,1-.92.45.68.68,0,0,1-.6-.32,1.3,1.3,0,0,1-.2-.7,1.38,1.38,0,0,1,.35-.95A1.09,1.09,0,0,1,353.74,200.05Z" transform="translate(-9.72 -65.48)" style="fill:#1d1d1b"/><path d="M362.49,205.05a5.41,5.41,0,0,1,1.07.1,5.55,5.55,0,0,1,.77.22l-1.45,7.48c0,.09-.05.24-.08.47a2.16,2.16,0,0,0,0,.62c0,.18.1.28.23.28a1.06,1.06,0,0,0,.64-.33,7.49,7.49,0,0,0,.7-.67l.34-.37s.07.06.13.16a.6.6,0,0,1,.09.28,4.18,4.18,0,0,1-.43.54,8.32,8.32,0,0,1-.79.75,6.65,6.65,0,0,1-1,.67,1.94,1.94,0,0,1-.91.28.7.7,0,0,1-.61-.35,1.75,1.75,0,0,1-.22-.89c0-.1,0-.27.05-.51s.08-.5.12-.76.06-.38.08-.47,0-.17,0-.25a8.76,8.76,0,0,1-.54.85,13,13,0,0,1-.86,1.07,6.28,6.28,0,0,1-1,.91,1.87,1.87,0,0,1-1.06.37,1.82,1.82,0,0,1-1.53-.77,3.42,3.42,0,0,1-.55-2,6.85,6.85,0,0,1,.64-2.94,8.9,8.9,0,0,1,1.66-2.45,8.5,8.5,0,0,1,2.2-1.66A5.06,5.06,0,0,1,362.49,205.05Zm-1.1.95a2.31,2.31,0,0,0-1.37.51,5.66,5.66,0,0,0-1.28,1.37,7.91,7.91,0,0,0-.93,1.89,6.1,6.1,0,0,0-.36,2,3.87,3.87,0,0,0,.31,1.71,1,1,0,0,0,.91.6,1.43,1.43,0,0,0,.95-.49,5.88,5.88,0,0,0,1-1.27,11.91,11.91,0,0,0,1.38-3.49l.51-2.51a1,1,0,0,0-.51-.27A2.42,2.42,0,0,0,361.39,206Z" transform="translate(-9.72 -65.48)" style="fill:#1d1d1b"/><path d="M378.16,213l.83-3.91a5.26,5.26,0,0,0,.11-.63,6,6,0,0,0,.06-.66,3.67,3.67,0,0,0-.06-.74.36.36,0,0,0-.4-.28,1.75,1.75,0,0,0-1,.5,9.44,9.44,0,0,0-1.28,1.31,11.5,11.5,0,0,0-1.19,1.78,6.24,6.24,0,0,0-.69,1.86l-.59,3.13-.42.05a3,3,0,0,1-.45,0,2.62,2.62,0,0,1-.42,0l-.41-.05,1.31-6.73c0-.2.06-.37.08-.51s0-.28,0-.39c0-.63-.15-.95-.46-.95a1.73,1.73,0,0,0-1,.56A9.94,9.94,0,0,0,371,208.8a12,12,0,0,0-1.13,1.85,8.72,8.72,0,0,0-.68,1.84l-.61,2.89a3.05,3.05,0,0,1-.85.1,1.76,1.76,0,0,1-.42,0l-.41-.06,1.56-7.65a3.83,3.83,0,0,0,.06-.41,2.56,2.56,0,0,0,0-.37v0a2.16,2.16,0,0,0,0-.35.18.18,0,0,0-.19-.19,1.12,1.12,0,0,0-.63.33,7.49,7.49,0,0,0-.7.67l-.35.39s-.08-.06-.14-.18a.63.63,0,0,1-.1-.28,4.58,4.58,0,0,1,.42-.54c.22-.24.48-.49.77-.75a5.83,5.83,0,0,1,.92-.67,1.94,1.94,0,0,1,.9-.28.82.82,0,0,1,.66.35,1.45,1.45,0,0,1,.27.89,2.77,2.77,0,0,1-.07.51c0,.25-.08.5-.13.76-.08.42-.16.79-.23,1.1s-.16.69-.25,1.11c.21-.38.49-.83.83-1.36s.73-1.06,1.13-1.57a9.43,9.43,0,0,1,1.21-1.28,1.72,1.72,0,0,1,1.06-.51,1.42,1.42,0,0,1,1,.35,1.74,1.74,0,0,1,.45.87,5.17,5.17,0,0,1,.11,1c0,.18,0,.41-.05.7s-.08.55-.13.81-.11.46-.16.61a12.5,12.5,0,0,1,.86-1.3c.37-.5.76-1,1.18-1.45a8.88,8.88,0,0,1,1.25-1.17,2,2,0,0,1,1.08-.46,1.34,1.34,0,0,1,1.15.43,1.89,1.89,0,0,1,.31,1.15,7.71,7.71,0,0,1-.11,1.31c-.07.47-.15.9-.23,1.27l-.78,3.64c0,.12,0,.26-.06.43s0,.29,0,.35a2.64,2.64,0,0,0,0,.38q0,.21.21.21a1.06,1.06,0,0,0,.64-.33,7.2,7.2,0,0,0,.68-.67l.33-.37s.08.06.15.16a.63.63,0,0,1,.1.28,3.68,3.68,0,0,1-.44.54c-.23.24-.5.49-.8.75a6.65,6.65,0,0,1-1,.67,2,2,0,0,1-.92.28.67.67,0,0,1-.59-.35,1.75,1.75,0,0,1-.21-.89c0-.1,0-.27.05-.51S378.11,213.28,378.16,213Z" transform="translate(-9.72 -65.48)" style="fill:#1d1d1b"/><path d="M390.07,205.05a5.33,5.33,0,0,1,1.07.1,6.15,6.15,0,0,1,.78.22l-1.46,7.48c0,.09,0,.24-.07.47a2.16,2.16,0,0,0,0,.62c0,.18.1.28.23.28a1.08,1.08,0,0,0,.64-.33,8.8,8.8,0,0,0,.69-.67l.34-.37s.08.06.14.16a.71.71,0,0,1,.08.28,3.2,3.2,0,0,1-.42.54,9.73,9.73,0,0,1-.79.75,6.65,6.65,0,0,1-1,.67,2,2,0,0,1-.91.28.68.68,0,0,1-.61-.35,1.66,1.66,0,0,1-.22-.89,3.21,3.21,0,0,1,.05-.51c0-.25.07-.5.12-.76s.06-.38.07-.47,0-.17.05-.25a7.51,7.51,0,0,1-.55.85,11.2,11.2,0,0,1-.86,1.07,6.22,6.22,0,0,1-1,.91,1.89,1.89,0,0,1-1.06.37,1.79,1.79,0,0,1-1.53-.77,3.42,3.42,0,0,1-.56-2,7,7,0,0,1,.64-2.94,8.93,8.93,0,0,1,1.67-2.45,8.33,8.33,0,0,1,2.2-1.66A5,5,0,0,1,390.07,205.05ZM389,206a2.29,2.29,0,0,0-1.37.51,5.47,5.47,0,0,0-1.28,1.37,8.34,8.34,0,0,0-.94,1.89,6.34,6.34,0,0,0-.35,2,3.88,3.88,0,0,0,.3,1.71,1,1,0,0,0,.92.6,1.42,1.42,0,0,0,.94-.49,6.23,6.23,0,0,0,1-1.27,13.09,13.09,0,0,0,.84-1.72,10.08,10.08,0,0,0,.53-1.77l.51-2.51a1,1,0,0,0-.51-.27A2.35,2.35,0,0,0,389,206Z" transform="translate(-9.72 -65.48)" style="fill:#1d1d1b"/><path d="M396.1,207.73c0-.09,0-.22.06-.41s0-.31,0-.37v0a2.16,2.16,0,0,0,0-.35.18.18,0,0,0-.19-.19,1.12,1.12,0,0,0-.63.33,7.49,7.49,0,0,0-.7.67l-.35.39s-.08-.06-.14-.18a.63.63,0,0,1-.1-.28,4.19,4.19,0,0,1,.41-.54,7.74,7.74,0,0,1,.76-.75,5.4,5.4,0,0,1,.92-.67,1.87,1.87,0,0,1,.9-.28.85.85,0,0,1,.67.35,1.45,1.45,0,0,1,.28.89c0,.1,0,.27-.05.51s-.08.5-.13.76l-1.21,5.29c0,.12,0,.26-.06.43a2.26,2.26,0,0,0,0,.35,1.76,1.76,0,0,0,0,.38q0,.21.21.21a1.08,1.08,0,0,0,.64-.33,7.2,7.2,0,0,0,.68-.67l.33-.37s.08.06.14.16a.53.53,0,0,1,.1.28,3.1,3.1,0,0,1-.44.54,8.52,8.52,0,0,1-.8.75,6.65,6.65,0,0,1-1,.67,1.94,1.94,0,0,1-.91.28.64.64,0,0,1-.59-.35,1.75,1.75,0,0,1-.21-.89,3.21,3.21,0,0,1,.05-.51c0-.25.07-.5.12-.76Zm1.36-7.68a.77.77,0,0,1,.62.27,1,1,0,0,1,.23.67,1.55,1.55,0,0,1-.36,1,1.15,1.15,0,0,1-.93.45.66.66,0,0,1-.59-.32,1.23,1.23,0,0,1-.21-.7,1.43,1.43,0,0,1,.35-.95A1.11,1.11,0,0,1,397.46,200.05Z" transform="translate(-9.72 -65.48)" style="fill:#1d1d1b"/><path d="M404.39,205a3.66,3.66,0,0,1,1.18.16,2.42,2.42,0,0,1,.86.5,1.17,1.17,0,0,1,.17.37,1.47,1.47,0,0,1,.07.38,1.07,1.07,0,0,1-.22.68.69.69,0,0,1-.58.29.88.88,0,0,1-.6-.25,4.76,4.76,0,0,1-.52-.57,4.58,4.58,0,0,0-.4-.53,1,1,0,0,0-.72-.23.94.94,0,0,0-.88.48,1.67,1.67,0,0,0-.28.86,1.93,1.93,0,0,0,.52,1.3c.35.4.7.8,1.06,1.23a9.85,9.85,0,0,1,1,1.34,3.07,3.07,0,0,1,.44,1.62,2.63,2.63,0,0,1-1,2.12,3.74,3.74,0,0,1-2.47.8,4.16,4.16,0,0,1-1.08-.16,2.86,2.86,0,0,1-1-.55,3.57,3.57,0,0,1-.14-.33.94.94,0,0,1-.1-.4,1.18,1.18,0,0,1,.26-.8.8.8,0,0,1,.62-.29.59.59,0,0,1,.55.34c.14.23.29.47.47.73a2.12,2.12,0,0,0,.5.49,1.29,1.29,0,0,0,.76.21,1,1,0,0,0,.73-.24A1.38,1.38,0,0,0,404,214a2.28,2.28,0,0,0,.1-.57,1.83,1.83,0,0,0-.39-1.14c-.26-.34-.54-.69-.85-1.05s-.79-.95-1.16-1.46a3,3,0,0,1-.54-1.77,2.6,2.6,0,0,1,.4-1.36,3.5,3.5,0,0,1,1.14-1.16A3.19,3.19,0,0,1,404.39,205Z" transform="translate(-9.72 -65.48)" style="fill:#1d1d1b"/><path d="M407.5,214.6a1.56,1.56,0,0,1,.5-1.15,1.51,1.51,0,0,1,1.08-.5.94.94,0,0,1,.74.31,1.05,1.05,0,0,1,.28.76,1.67,1.67,0,0,1-.49,1.18,1.43,1.43,0,0,1-1.07.52,1,1,0,0,1-.75-.33A1.15,1.15,0,0,1,407.5,214.6Z" transform="translate(-9.72 -65.48)" style="fill:#1d1d1b"/><path d="M317.1,65.91A58.32,58.32,0,0,1,324,78.19a76.71,76.71,0,0,1,3.54,9.4,92.4,92.4,0,0,1,2.3,13,39.16,39.16,0,0,1-1,14.18,66.65,66.65,0,0,1-4.52,12.48c-2,4.06-4.81,7.73-7.27,11.57-.74,1.14-1.52,1.46-3.07,1.14a76.3,76.3,0,0,1-16-5.32c-8.87-4.07-16.91-9.41-23.4-16.8-1.85-2.1-3.47-4.4-5.18-6.63a1.55,1.55,0,0,1-.4-1c.31-2.31.7-4.62,1.08-7,.44,0,.92-.1,1.41-.1,6.56,0,13.15-.36,19.63,1.07a13.48,13.48,0,0,1,4.05,1.64c3.14,1.9,5.74.59,6.19-3.07.55-4.44-3.24-5.67-6.71-5.13-7.49,1.17-15,2.36-22.47,3.51a15.06,15.06,0,0,1-2.14,0,27.61,27.61,0,0,0-.38-3.21c-.46-1.94-1-3.87-1.62-5.75-.28-.8-.39-1.19.33-1.92a82.3,82.3,0,0,1,19.55-14.53,98.72,98.72,0,0,1,13.82-6c3.19-1.13,6.66-1.44,10-2.22C313.42,67.16,315.08,66.54,317.1,65.91Z" transform="translate(-9.72 -65.48)" style="fill-rule:evenodd"/><path d="M203.78,65.48a12.5,12.5,0,0,0,6.58,2.16,26.61,26.61,0,0,1,5.26,1.1,79,79,0,0,1,18.95,7.86A87.37,87.37,0,0,1,252.5,90.35a1.73,1.73,0,0,1,.32,1.51,20.85,20.85,0,0,0-2,9.5c-2.62-.34-5.09-.64-7.56-1l-15.38-2.19a21,21,0,0,0-4.67-.6c-2.77.25-3.87,1.11-4.5,3.78a4.68,4.68,0,0,0,2.31,4.91,3.6,3.6,0,0,0,2.87.08,17.07,17.07,0,0,1,8.6-2.7c6.05-.44,12.12-.52,18-.74.5,2.54.95,4.66,1.3,6.79a2.23,2.23,0,0,1-.33,1.49,64.18,64.18,0,0,1-19.81,18.69,80.28,80.28,0,0,1-15.89,7.55c-3.28,1.13-6.69,1.87-10.07,2.72a1.48,1.48,0,0,1-1.16-.51,49.75,49.75,0,0,1-9-14.44,75.63,75.63,0,0,1-3.66-11.08,44,44,0,0,1-.45-17.77,83.7,83.7,0,0,1,2.3-10.49A109.25,109.25,0,0,1,199,73.53C200.38,70.75,202.16,68.18,203.78,65.48Z" transform="translate(-9.72 -65.48)" style="fill-rule:evenodd"/><path d="M268.17,110.17a21.9,21.9,0,0,0-15.24-.11c-1.66-6.25-1.69-12.33,1.06-18.38a31.13,31.13,0,0,0,12.05.14c.4-.07,1.19.81,1.46,1.39,1.29,2.85,1.4,5.94,1.4,9C268.9,104.78,268.44,107.37,268.17,110.17Z" transform="translate(-9.72 -65.48)" style="fill-rule:evenodd"/><path d="M245.74,102c-4.15.18-8.33.15-12.45.59-3.09.33-6.29.59-9,2.51-1,.71-2.32,1.35-3.17,0a6.6,6.6,0,0,1-1.21-3.78c.22-2.5,3-3.1,5.3-2.72,4.78.79,9.55,1.7,14.34,2.47,2.07.33,4.18.42,6.28.63Z" transform="translate(-9.72 -65.48)" style="fill-rule:evenodd"/><path d="M274.18,101.88c3.82-.57,7.64-1.11,11.45-1.69,2.9-.45,5.79-1,8.69-1.39a6.14,6.14,0,0,1,2.73-.19c1.15.4,2.69,1,3.07,2a3.73,3.73,0,0,1-.79,4.37,2.17,2.17,0,0,1-2.94.38c-3.88-2.56-8.38-2.82-12.8-3.15-3.1-.24-6.24,0-9.35,0Z" transform="translate(-9.72 -65.48)" style="fill-rule:evenodd"/></svg>